<svg width="12" height="12" viewBox="0 0 12 12" fill="none" xmlns="http://www.w3.org/2000/svg">
<g clip-path="url(#clip0_719_1622)">
<path d="M5.53487 1.17936C5.70133 0.757285 6.29867 0.757285 6.46513 1.17936L7.61738 4.10093C7.66821 4.22979 7.77021 4.33179 7.89907 4.38262L10.8206 5.53487C11.2427 5.70133 11.2427 6.29867 10.8206 6.46513L7.89907 7.61738C7.77021 7.66821 7.66821 7.77021 7.61738 7.89907L6.46513 10.8206C6.29867 11.2427 5.70133 11.2427 5.53487 10.8206L4.38262 7.89907C4.33179 7.77021 4.22979 7.66821 4.10093 7.61738L1.17936 6.46513C0.757285 6.29867 0.757285 5.70133 1.17936 5.53487L4.10093 4.38262C4.22979 4.33179 4.33179 4.22979 4.38262 4.10093L5.53487 1.17936Z" fill="#2C2C2C"/>
</g>
<defs>
<clipPath id="clip0_719_1622">
<rect width="12" height="12" fill="white"/>
</clipPath>
</defs>
</svg>
