<svg width="32" height="32" viewBox="0 0 32 32" fill="none" xmlns="http://www.w3.org/2000/svg">
<g clip-path="url(#clip0_1_308)">
<rect width="32" height="32" rx="3.16952" fill="#2C2C2C"/>
<path d="M17 24V9H22.3467C23.5088 9 24.4732 9.2002 25.2398 9.60059C26.0113 10.001 26.5874 10.5552 26.9683 11.2632C27.3491 11.9663 27.5396 12.7793 27.5396 13.7022C27.5396 14.6201 27.3467 15.4282 26.961 16.1265C26.5801 16.8198 26.0039 17.3594 25.2324 17.7451C24.4658 18.1309 23.5015 18.3238 22.3394 18.3238H18.2891V16.3755H22.1343C22.8667 16.3755 23.4624 16.2705 23.9214 16.0606C24.3853 15.8506 24.7246 15.5454 24.9395 15.145C25.1543 14.7446 25.2617 14.2637 25.2617 13.7022C25.2617 13.1358 25.1519 12.645 24.9321 12.23C24.7173 11.8149 24.3779 11.4976 23.9141 11.2778C23.4551 11.0532 22.8521 10.9409 22.105 10.9409H19.2632V24H17ZM24.4048 17.2324L28.1109 24H25.5327L21.8999 17.2324H24.4048Z" fill="white"/>
<path d="M9.22694 15.4112L9.16837 15.4698V15.5526V21.8158V22.0158H9.36837H11.1578H11.3578V21.8158V16.8386C11.3578 16.6411 11.4363 16.4518 11.5759 16.3122L13.1773 14.7107C13.3488 14.5392 13.6421 14.6607 13.6421 14.9032V24.0278C13.6421 24.1781 13.5202 24.3 13.3698 24.3H7.15638C7.00603 24.3 6.88416 24.1781 6.88416 24.0278V18.2368V17.754L6.54273 18.0954L4.66471 19.9735C4.49322 20.145 4.2 20.0235 4.2 19.781V17.7333C4.2 17.5359 4.27843 17.3465 4.41804 17.2069L13.1773 8.44756C13.3488 8.27607 13.6421 8.39753 13.6421 8.64005V10.6877C13.6421 10.8852 13.5636 11.0745 13.424 11.2141L9.22694 15.4112Z" fill="white" stroke="#2C2C2C" stroke-width="0.4"/>
</g>
<defs>
<clipPath id="clip0_1_308">
<rect width="32" height="32" fill="white"/>
</clipPath>
</defs>
</svg>
