<svg width="93" height="32" viewBox="0 0 93 32" fill="none" xmlns="http://www.w3.org/2000/svg">
<path fill-rule="evenodd" clip-rule="evenodd" d="M9.18415 14.8191L13.7745 10.2287C13.8683 10.135 13.921 10.0078 13.921 9.87518V7.70703L4.64645 16.9816C4.55268 17.0754 4.5 17.2026 4.5 17.3352V19.5033L7.34205 16.6612V23.9999H13.921V14.3386L12.2253 16.0343C12.1316 16.128 12.0789 16.2552 12.0789 16.3878V22.1578H9.18415V14.8191Z" fill="white"/>
<path d="M20 23.2725V8.72705H25.1847C26.3116 8.72705 27.2467 8.92118 27.9901 9.30944C28.7382 9.69769 29.2969 10.2351 29.6662 10.9217C30.0355 11.6035 30.2202 12.3918 30.2202 13.2867C30.2202 14.1769 30.0331 14.9605 29.6591 15.6376C29.2898 16.3099 28.7311 16.8331 27.983 17.2072C27.2396 17.5812 26.3045 17.7682 25.1776 17.7682H21.25V15.879H24.9787C25.6889 15.879 26.2666 15.7772 26.7116 15.5736C27.1615 15.37 27.4905 15.0741 27.6989 14.6859C27.9072 14.2976 28.0114 13.8312 28.0114 13.2867C28.0114 12.7375 27.9048 12.2616 27.6918 11.8592C27.4834 11.4567 27.1544 11.1489 26.7045 10.9359C26.2595 10.7181 25.6747 10.6092 24.9503 10.6092H22.1946V23.2725H20ZM27.1804 16.71L30.7741 23.2725H28.2741L24.7514 16.71H27.1804Z" fill="white"/>
<path d="M32.8906 23.2725V8.72705H42.0099V10.6163H35.0852V15.0481H41.5341V16.9302H35.0852V21.3833H42.0952V23.2725H32.8906Z" fill="white"/>
<path d="M46.1701 23.2725H43.8406L49.0749 8.72705H51.6104L56.8448 23.2725H54.5153L50.4031 11.3691H50.2894L46.1701 23.2725ZM46.5607 17.5765H54.1175V19.4231H46.5607V17.5765Z" fill="white"/>
<path d="M58.9453 23.2725V8.72705H61.1399V21.3833H67.7308V23.2725H58.9453Z" fill="white"/>
<path d="M67.6225 10.6163V8.72705H78.8796V10.6163H74.3413V23.2725H72.1538V10.6163H67.6225Z" fill="white"/>
<path d="M80.245 8.72705H82.7379L86.5376 15.3393H86.6939L90.4936 8.72705H92.9865L87.7095 17.5623V23.2725H85.522V17.5623L80.245 8.72705Z" fill="white"/>
</svg>
