<svg width="20" height="21" viewBox="0 0 20 21" fill="none" xmlns="http://www.w3.org/2000/svg">
<path d="M17.0833 9.66659V6.49992C17.0833 5.5665 17.0833 5.09979 16.9017 4.74327C16.7419 4.42966 16.4869 4.1747 16.1733 4.01491C15.8168 3.83325 15.3501 3.83325 14.4167 3.83325H5.58332C4.6499 3.83325 4.18319 3.83325 3.82667 4.01491C3.51307 4.1747 3.2581 4.42966 3.09831 4.74327C2.91666 5.09979 2.91666 5.5665 2.91666 6.49992V9.66659M17.0833 9.66659V9.66659C17.7737 9.66659 18.3333 10.2262 18.3333 10.9166V13.4166M17.0833 9.66659H9.99999M2.91666 9.66659V9.66659C2.2263 9.66659 1.66666 10.2262 1.66666 10.9166V13.4166M2.91666 9.66659H9.99999M3.33332 17.1666V15.9166M16.6667 17.1666V15.9166M9.99166 9.66659V8.99992C9.99166 8.0665 9.99166 7.59979 9.81 7.24327C9.65021 6.92966 9.39524 6.6747 9.08164 6.51491C8.72512 6.33325 8.25841 6.33325 7.32499 6.33325H7.24999C6.31657 6.33325 5.84986 6.33325 5.49334 6.51491C5.17974 6.6747 4.92477 6.92966 4.76498 7.24327C4.58332 7.59979 4.58332 8.0665 4.58332 8.99992V9.66659M9.99999 9.66659V8.99992C9.99999 8.0665 9.99999 7.59979 10.1816 7.24327C10.3414 6.92966 10.5964 6.6747 10.91 6.51491C11.2665 6.33325 11.7332 6.33325 12.6667 6.33325H12.75C13.6834 6.33325 14.1501 6.33325 14.5066 6.51491C14.8202 6.6747 15.0752 6.92966 15.235 7.24327C15.4167 7.59979 15.4167 8.0665 15.4167 8.99992V9.66659M1.66666 13.4166V14.5833C1.66666 15.05 1.66666 15.2833 1.75748 15.4616C1.83738 15.6184 1.96486 15.7459 2.12166 15.8258C2.29992 15.9166 2.53328 15.9166 2.99999 15.9166H17C17.4667 15.9166 17.7001 15.9166 17.8783 15.8258C18.0351 15.7459 18.1626 15.6184 18.2425 15.4616C18.3333 15.2833 18.3333 15.05 18.3333 14.5833V13.4166M1.66666 13.4166H18.3333" stroke="#757575" stroke-width="1.25" stroke-linecap="round" stroke-linejoin="round"/>
</svg>
