<svg width="20" height="21" viewBox="0 0 20 21" fill="none" xmlns="http://www.w3.org/2000/svg">
<path d="M2.5 11.7501H3.33333M17.5 11.7501H16.6667M16.6667 11.7501V13.4167C16.6667 15.2577 15.1743 16.7501 13.3333 16.7501H6.66666C4.82571 16.7501 3.33333 15.2577 3.33333 13.4167V11.7501M16.6667 11.7501H4.16667M3.33333 11.7501H4.16667M5.83333 17.5834V16.7501M14.1667 17.5834V16.7501M4.16667 11.7501V5.50008C4.16667 4.34949 5.09941 3.41675 6.25 3.41675V3.41675C7.40059 3.41675 8.33333 4.34949 8.33333 5.50008V5.91675M8.33333 5.91675V5.91675C7.55479 6.17626 6.9628 6.81554 6.76376 7.61169L6.66667 8.00008H10L9.9029 7.61169C9.70386 6.81554 9.11187 6.17626 8.33333 5.91675V5.91675Z" stroke="#757575" stroke-width="1.25" stroke-linecap="round" stroke-linejoin="round"/>
</svg>
