<svg width="256" height="256" viewBox="0 0 256 256" fill="none" xmlns="http://www.w3.org/2000/svg">
<g clip-path="url(#clip0_1_307)">
<rect width="256" height="256" fill="white"/>
<rect width="256" height="256" rx="25.3562" fill="#2C2C2C"/>
<path d="M136 192V72H178.774C188.07 72 195.785 73.6016 201.918 76.8047C208.09 80.0078 212.699 84.4414 215.746 90.1055C218.793 95.7305 220.317 102.234 220.317 109.617C220.317 116.961 218.774 123.426 215.688 129.012C212.641 134.559 208.031 138.875 201.86 141.961C195.727 145.047 188.012 146.59 178.715 146.59H146.313V131.004H177.074C182.934 131.004 187.699 130.164 191.371 128.485C195.082 126.805 197.797 124.363 199.516 121.16C201.235 117.957 202.094 114.109 202.094 109.617C202.094 105.086 201.215 101.16 199.457 97.8399C197.738 94.5196 195.024 91.9805 191.313 90.2227C187.641 88.4258 182.817 87.5274 176.84 87.5274H154.106V192H136ZM195.238 137.86L224.887 192H204.262L175.199 137.86H195.238Z" fill="white"/>
<path d="M73.8156 123.29L73.3469 123.758V124.421V174.526V176.126H74.9469H89.2627H90.8627V174.526V134.709C90.8627 133.129 91.4902 131.614 92.6071 130.497L105.419 117.686C106.791 116.314 109.136 117.286 109.136 119.226V192.222C109.136 193.425 108.161 194.4 106.959 194.4H57.251C56.0483 194.4 55.0732 193.425 55.0732 192.222V145.895V142.032L52.3419 144.763L37.3177 159.788C35.9458 161.16 33.6 160.188 33.6 158.248V141.866C33.6 140.287 34.2275 138.772 35.3443 137.655L105.419 67.5805C106.791 66.2085 109.136 67.1802 109.136 69.1204V85.502C109.136 87.0815 108.509 88.5963 107.392 89.7132L73.8156 123.29Z" fill="white" stroke="#2C2C2C" stroke-width="3.2"/>
</g>
<defs>
<clipPath id="clip0_1_307">
<rect width="256" height="256" fill="white"/>
</clipPath>
</defs>
</svg>
