<svg width="95" height="32" viewBox="0 0 95 32" fill="none" xmlns="http://www.w3.org/2000/svg">
<path d="M11.5789 21.6579H9.68415V15.0263L14.1281 10.5824C14.3156 10.3948 14.421 10.1405 14.421 9.87526V7.70711C14.421 7.26166 13.8824 7.03858 13.5674 7.35356L4.29289 16.6282C4.10536 16.8157 4 17.07 4 17.3353V19.5034C4 19.9489 4.53858 20.1719 4.85356 19.857L6.84205 17.8684V24C6.84205 24.2761 7.06591 24.5 7.34205 24.5H13.921C14.1971 24.5 14.421 24.2761 14.421 24V14.3387C14.421 13.8932 13.8824 13.6702 13.5674 13.9851L11.8718 15.6808C11.6842 15.8683 11.5789 16.1227 11.5789 16.3879V21.6579Z" fill="#2C2C2C"/>
<path d="M20 23.2725V8.72705H25.4545C26.572 8.72705 27.5095 8.92118 28.267 9.30944C29.0294 9.69769 29.6046 10.2422 29.9929 10.943C30.3859 11.639 30.5824 12.451 30.5824 13.379C30.5824 14.3118 30.3835 15.1215 29.9858 15.808C29.5928 16.4898 29.0128 17.0178 28.2457 17.3918C27.4787 17.7611 26.5365 17.9458 25.419 17.9458H21.5341V15.7583H25.0639C25.7173 15.7583 26.2524 15.6683 26.669 15.4884C27.0857 15.3038 27.3935 15.0362 27.5923 14.6859C27.7959 14.3307 27.8977 13.8951 27.8977 13.379C27.8977 12.8629 27.7959 12.4226 27.5923 12.058C27.3887 11.6887 27.0786 11.4093 26.6619 11.2199C26.2453 11.0258 25.7079 10.9288 25.0497 10.9288H22.6349V23.2725H20ZM27.5142 16.6816L31.1151 23.2725H28.1747L24.6378 16.6816H27.5142Z" fill="#2C2C2C"/>
<path d="M33.0078 23.2725V8.72705H42.468V10.9359H35.6428V14.8847H41.978V17.0935H35.6428V21.0637H42.5249V23.2725H33.0078Z" fill="#2C2C2C"/>
<path d="M47.0241 23.2725H44.2116L49.3324 8.72705H52.5852L57.7131 23.2725H54.9006L51.0156 11.71H50.902L47.0241 23.2725ZM47.1165 17.5694H54.7869V19.6859H47.1165V17.5694Z" fill="#2C2C2C"/>
<path d="M59.6289 23.2725V8.72705H62.2639V21.0637H68.6701V23.2725H59.6289Z" fill="#2C2C2C"/>
<path d="M68.4624 10.9359V8.72705H80.0675V10.9359H75.5717V23.2725H72.9581V10.9359H68.4624Z" fill="#2C2C2C"/>
<path d="M81.3104 8.72705H84.2862L87.8445 15.1617H87.9865L91.5447 8.72705H94.5206L89.2294 17.8464V23.2725H86.6016V17.8464L81.3104 8.72705Z" fill="#2C2C2C"/>
</svg>
